<?xml version="1.0" encoding="UTF-8"?>
<svg viewBox="0 0 1200 1200" xmlns="http://www.w3.org/2000/svg">
 <rect x="-120" y="-120" width="1440" height="1440" fill="#fd705a"/>
 <path d="m473.5 734.77v-120.44h57.637c18.047 0 30.926 2.6992 38.633 8.0938s11.57 14.262 11.57 26.578c0 7.3594-1.5859 13.461-4.7461 18.312-3.1602 4.8594-8.0352 8.6914-14.637 11.523 6.7031 1.4219 11.578 4.2188 14.637 8.3828 3.0625 4.1641 4.6836 10.285 4.9062 18.355l0.64844 16.762c0 0.11328 0.03125 0.24219 0.082031 0.40625 0.16797 4.7969 1.3164 7.3086 3.4375 7.5273v4.4961h-39.004c-0.71094-2.8867-1.2383-5.4102-1.5938-7.5664-0.35547-2.1445-0.52734-3.832-0.52734-5.0273v-12.023c0-6.2109-1.2227-10.578-3.6719-13.121-2.457-2.5312-6.7109-3.8008-12.758-3.8008h-16.43v41.535zm38.184-68.68h17.578c6.1523 0 10.406-0.83203 12.758-2.4922 2.3438-1.6641 3.5156-4.5664 3.5156-8.707 0-4.2539-1.1719-7.2031-3.5156-8.8711-2.3516-1.6641-6.9219-2.4922-13.73-2.4922h-16.594l-0.003906 22.562zm184.59 21.992h36.629c-1.0977 15.863-6.6797 28.172-16.762 36.918-10.082 8.75-23.746 13.121-40.961 13.121-19.301 0-34.484-5.6523-45.539-16.965-11.062-11.305-16.594-26.797-16.594-46.477 0-19.625 5.4805-35.102 16.438-46.438 10.949-11.344 25.891-17.004 44.805-17.004 17.441 0 31.164 4.2109 41.164 12.629 10 8.418 15.598 20.449 16.809 36.094h-37.039c-0.54297-6.1523-2.5312-10.809-5.9688-13.941-3.4297-3.1289-8.2617-4.6992-14.473-4.6992-7.5703 0-13.254 2.7656-17.051 8.3047-3.7852 5.5234-5.6836 13.883-5.6836 25.051 0 10.957 2.0234 19.246 6.0547 24.855 4.0352 5.6133 9.9453 8.418 17.746 8.418 6 0 10.754-1.7148 14.277-5.1523 3.4961-3.4336 5.5508-8.3398 6.1484-14.715zm170.1-450.2h-587.32c-16.664 0-30.23 13.566-30.23 30.23v663.78c0 16.664 13.566 30.23 30.23 30.23h641.84c16.664 0 30.23-13.566 30.23-30.23v-400.38l-0.003906-199.09zm-190.82 144.21h33.371c10.438 0 18.895-9.4102 18.895-21.023v-100.52h63.617v144.84c0 4.1719-3.3945 7.5586-7.5586 7.5586l-308.88-0.003906v-152.39h181.66v100.52c-0.003907 11.617 8.4531 21.023 18.891 21.023zm-223.22-121.54v152.4h-38.77c-4.1797 0-7.5586-3.3867-7.5586-7.5586l0.003907-144.84zm-180.84 293.63h656.96v241h-656.96zm656.96 377.7c0 4.1641-3.3945 7.5586-7.5586 7.5586l-641.84-0.003907c-4.1641 0-7.5586-3.3945-7.5586-7.5586v-114.04h656.96zm-656.96-400.37v-263.41c0-4.1641 3.3945-7.5586 7.5586-7.5586l104.28 0.003906v144.84c0 16.672 13.551 30.23 30.23 30.23h370.32c16.664 0 30.23-13.559 30.23-30.23l-0.007813-144.84h42.137l72.207 80.535v190.42h-656.95z"/>
</svg>
